<svg width="70" height="70" viewBox="0 0 70 70" fill="none" xmlns="http://www.w3.org/2000/svg">
<path d="M69.3392 34.209V35.1301C50.0474 36.5791 36.7723 49.9957 35.2474 69.3495H34.2573C32.8705 49.9957 19.3573 36.5791 0 35.1646V34.247C19.3573 32.6669 32.8429 19.3228 34.2435 0H35.0922C36.7516 19.2779 50.0474 32.6669 69.3392 34.209ZM32.3737 28.879H34.4229C36.1858 28.879 37.2139 29.3792 37.9487 30.3314C38.8457 31.4871 39.0734 33.1948 39.0734 35.2267C39.0734 38.9181 37.7245 40.6983 34.7783 40.6983H32.7532C30.2555 40.6983 28.6616 42.9027 28.289 43.4651L33.7053 43.5617C35.0198 43.5617 35.6062 43.5134 36.4446 43.4616C38.5248 43.3374 40.5154 42.3818 41.8574 40.9535C43.3616 39.37 44.0998 37.2863 44.0998 34.9025C44.0998 31.7631 43.1097 29.5275 41.0536 27.9475C39.7116 26.8918 38.0763 26.3398 36.1824 26.2157C35.2854 26.1674 33.5881 26.1156 32.3047 26.1156H27.8198V35.7994H32.3702V28.8755" fill="white"/>
</svg>
